<?xml version="1.0" encoding="UTF-8" standalone="no"?>
<!-- Created with Inkscape (http://www.inkscape.org/) -->

<svg
   width="37mm"
   height="10mm"
   viewBox="0 0 37 10"
   version="1.1"
   id="svg1"
   sodipodi:docname="logo-white.svg"
   inkscape:version="1.3.2 (091e20e, 2023-11-25, custom)"
   xmlns:inkscape="http://www.inkscape.org/namespaces/inkscape"
   xmlns:sodipodi="http://sodipodi.sourceforge.net/DTD/sodipodi-0.dtd"
   xmlns="http://www.w3.org/2000/svg"
   xmlns:svg="http://www.w3.org/2000/svg">
  <sodipodi:namedview
     id="namedview1"
     pagecolor="#ffffff"
     bordercolor="#000000"
     borderopacity="0.25"
     inkscape:showpageshadow="2"
     inkscape:pageopacity="0.0"
     inkscape:pagecheckerboard="0"
     inkscape:deskcolor="#d1d1d1"
     inkscape:document-units="mm"
     inkscape:zoom="5.7941077"
     inkscape:cx="64.203156"
     inkscape:cy="41.335096"
     inkscape:window-width="1920"
     inkscape:window-height="1009"
     inkscape:window-x="1912"
     inkscape:window-y="-8"
     inkscape:window-maximized="1"
     inkscape:current-layer="layer1" />
  <defs
     id="defs1" />
  <g
     inkscape:label="Layer 1"
     inkscape:groupmode="layer"
     id="layer1">
    <path
       d="m 5.9982882,5.9011631 q 0,0.118511 -0.04685,0.43546 -0.04961,0.344509 -0.0882,0.410655 -0.03307,0.05237 -0.09095,0.05237 -0.02481,0 -0.08268,-0.0083 -0.201194,-0.02756 -1.174089,-0.02756 -0.212218,0 -0.631141,-0.0028 -0.418924,-0.0028 -0.628386,-0.0028 -0.09095,0 -0.09095,-0.07993 0,-0.30868 0.03307,-0.926041 0.03583,-0.620118 0.03583,-0.928798 0,-0.314193 -0.03307,-1.171333 -0.0083,-0.220486 -0.03032,-0.658702 l -0.0028,-0.03858 q -0.0055,-0.06339 0.0689,-0.06339 0.203949,0 0.611849,0.01103 0.410655,0.01102 0.614605,0.01102 0.201193,0 0.606336,-0.01102 0.405144,-0.01103 0.606337,-0.01103 0.143316,0 0.165365,0.107487 0.01378,0.06339 0.04134,0.385851 0.03032,0.319705 0.03032,0.388607 0,0.05788 -0.05512,0.05788 -0.01654,0 -0.05788,-0.0028 -0.733117,-0.06063 -1.317405,-0.06063 -0.146072,0 -0.179145,0.0689 -0.01378,0.03307 -0.01378,0.212218 0,0.187414 0.05512,0.248047 0.04685,0.05237 0.179145,0.05237 0.02756,0 0.107487,-0.0028 0.07993,-0.0055 0.132292,-0.0055 0.347266,0 0.702799,-0.01929 0.03032,-0.0028 0.151585,-0.01378 0.09371,-0.01103 0.148828,-0.01103 0.06615,0 0.06615,0.06339 0,-0.05788 -0.04961,0.42168 -0.02205,0.220486 -0.02205,0.440972 0,0.05512 -0.07993,0.05512 0,0 -0.248047,-0.02756 -0.157096,-0.01654 -0.716579,-0.01654 h -0.292145 q -0.112999,0 -0.132291,0.05512 -0.0028,0.01378 -0.0028,0.170876 0,0.209462 0.02756,0.270096 0.04685,0.104731 0.352777,0.124023 -0.0055,0 0.402387,0 0.146072,0 0.432704,-0.0248 0.289388,-0.02756 0.432704,-0.02756 0.06063,0 0.06063,0.09922 z m 2.315104,-1.265039 q 0,0.08544 -0.03859,0.223242 -0.03307,0.110243 -0.06339,0.223242 -0.01102,0.137804 -0.05236,0.399631 -0.0083,0.03858 -0.06615,0.03858 -0.104731,0 -0.316949,-0.0028 -0.209461,-0.0028 -0.316948,-0.0028 -0.289388,0 -0.777214,0.05236 -0.02756,0.0028 -0.148828,0.02205 -0.09646,0.01654 -0.151584,0.01654 -0.07166,0 -0.07166,-0.135047 0,-0.07166 0.09371,-0.399631 0.09095,-0.311437 0.132292,-0.402387 0.01929,-0.0441 0.07166,-0.0441 0.107487,0 0.322461,0.01103 0.214974,0.01102 0.322461,0.01102 0.225998,0 0.746896,-0.06615 0.272852,-0.03583 0.256316,-0.03583 0.05788,0 0.05788,0.09095 z m 3.6683378,1.499305 q 0,0.0441 -0.05788,0.115755 -0.507118,0.603581 -1.347721,0.603581 -0.859896,0 -1.394575,-0.587044 -0.520898,-0.567752 -0.520898,-1.43316 0,-0.837847 0.509874,-1.422135 0.531923,-0.611849 1.353234,-0.611849 0.892968,0 1.400086,0.548459 0.05512,0.06063 0.05512,0.107487 0,0.05237 -0.192925,0.388607 -0.19017,0.336241 -0.239779,0.377582 -0.02205,0.02205 -0.05512,0.02205 -0.01378,0 -0.137803,-0.110243 -0.148828,-0.132292 -0.292144,-0.206706 -0.217731,-0.110243 -0.451997,-0.110243 -0.405143,0 -0.647678,0.303168 -0.223242,0.28112 -0.223242,0.694532 0,0.418923 0.223242,0.702799 0.242535,0.308681 0.647678,0.308681 0.239779,0 0.454753,-0.104731 0.14056,-0.0689 0.286632,-0.192926 0.121267,-0.104731 0.135047,-0.104731 0.02756,0 0.05512,0.03032 0.0441,0.04961 0.239778,0.34451 0.201194,0.305924 0.201194,0.336241 z m 2.929709,-0.733116 q 0,0.628385 -0.385851,1.019748 -0.383094,0.391363 -1.008724,0.391363 -0.606336,0 -0.997699,-0.385851 -0.391363,-0.38585 -0.391363,-0.992187 0,-0.63941 0.374826,-1.036285 0.374827,-0.399631 1.014236,-0.399631 0.622874,0 1.008724,0.391363 0.385851,0.388607 0.385851,1.01148 z m -0.903993,0 q 0,-0.21773 -0.135048,-0.383095 -0.135048,-0.16812 -0.350022,-0.16812 -0.21773,0 -0.358289,0.170876 -0.132292,0.159853 -0.132292,0.380339 0,0.223242 0.132292,0.383094 0.140559,0.170877 0.358289,0.170877 0.214974,0 0.355534,-0.170877 0.129536,-0.159852 0.129536,-0.383094 z m 5.641688,1.254015 q 0,0.09646 -0.08268,0.107487 -0.08268,0.01102 -0.407899,0.01102 -0.336242,0 -0.418924,-0.01654 -0.08268,-0.01654 -0.08268,-0.135047 0,-0.12678 0.0083,-0.377583 0.0083,-0.253559 0.0083,-0.380338 0,-0.482314 -0.01102,-0.686263 -0.01654,-0.327973 -0.311437,-0.327973 -0.129535,0 -0.259071,0.110243 -0.126779,0.107487 -0.14056,0.239778 -0.01102,0.115755 -0.01102,0.677995 0,0.129536 0.0083,0.394119 0.0083,0.261827 0.0083,0.394119 0,0.09095 -0.07993,0.09095 h -0.835091 q -0.07717,0 -0.07717,-0.112999 0,-0.129535 0.0083,-0.388606 0.0083,-0.259072 0.0083,-0.391363 0,-0.101975 -0.0055,-0.308681 -0.0055,-0.206706 -0.0055,-0.311437 0,-0.394118 -0.300412,-0.394118 -0.121268,0 -0.261827,0.09371 -0.154341,0.101975 -0.154341,0.214974 0,0.250803 0.0028,0.749653 0.0028,0.49885 0.0028,0.746897 0,0.0689 -0.01654,0.08544 -0.01654,0.01654 -0.08544,0.02205 -0.124024,0.01102 -0.391363,0.01102 -0.173633,0 -0.394119,-0.01654 -0.06615,-0.0055 -0.07993,-0.01929 -0.01102,-0.01378 -0.01102,-0.08268 0,-0.220487 0.0028,-0.658703 0.0028,-0.440972 0.0028,-0.661458 0,-0.451997 -0.06615,-1.016992 -0.0055,-0.03307 -0.0055,-0.04961 0,-0.04685 0.03859,-0.06339 0.06063,-0.02481 0.228754,-0.04134 0.206706,-0.01929 0.245291,-0.02481 0.02756,-0.0055 0.21773,-0.05788 0.135047,-0.03859 0.21773,-0.03859 0.05237,0 0.05512,0.192926 0.0028,0.190169 0.02205,0.190169 0.02756,-0.01103 0.06339,-0.03858 0.248047,-0.192926 0.391363,-0.264584 0.212217,-0.101974 0.460264,-0.101974 0.253559,0 0.451997,0.112999 0.223242,0.126779 0.289388,0.355534 0.146072,-0.198438 0.402387,-0.333486 0.256315,-0.135047 0.49885,-0.135047 0.363802,0 0.592556,0.16812 0.259071,0.190169 0.259071,0.542947 0,0.146072 -0.0083,0.440972 -0.0083,0.292145 -0.0083,0.438217 0,0.173632 0.0083,0.523654 0.0083,0.347266 0.0083,0.520899 z m 4.927865,0 q 0,0.09646 -0.08268,0.107487 -0.08268,0.01102 -0.407899,0.01102 -0.336241,0 -0.418924,-0.01654 -0.08268,-0.01654 -0.08268,-0.135047 0,-0.12678 0.0083,-0.377583 0.0083,-0.253559 0.0083,-0.380338 0,-0.482314 -0.01102,-0.686263 -0.01654,-0.327973 -0.311437,-0.327973 -0.129535,0 -0.259071,0.110243 -0.126779,0.107487 -0.14056,0.239778 -0.01102,0.115755 -0.01102,0.677995 0,0.129536 0.0083,0.394119 0.0083,0.261827 0.0083,0.394119 0,0.09095 -0.07993,0.09095 h -0.835091 q -0.07717,0 -0.07717,-0.112999 0,-0.129535 0.0083,-0.388606 0.0083,-0.259072 0.0083,-0.391363 0,-0.101975 -0.0055,-0.308681 -0.0055,-0.206706 -0.0055,-0.311437 0,-0.394118 -0.300412,-0.394118 -0.121268,0 -0.261827,0.09371 -0.154341,0.101975 -0.154341,0.214974 0,0.250803 0.0028,0.749653 0.0028,0.49885 0.0028,0.746897 0,0.0689 -0.01654,0.08544 -0.01654,0.01654 -0.08544,0.02205 -0.124024,0.01102 -0.391363,0.01102 -0.173633,0 -0.394119,-0.01654 -0.06615,-0.0055 -0.07993,-0.01929 -0.01102,-0.01378 -0.01102,-0.08268 0,-0.220487 0.0028,-0.658703 0.0028,-0.440972 0.0028,-0.661458 0,-0.451997 -0.06615,-1.016992 -0.0055,-0.03307 -0.0055,-0.04961 0,-0.04685 0.03858,-0.06339 0.06063,-0.02481 0.228754,-0.04134 0.206706,-0.01929 0.245291,-0.02481 0.02756,-0.0055 0.21773,-0.05788 0.135048,-0.03859 0.21773,-0.03859 0.05237,0 0.05512,0.192926 0.0028,0.190169 0.02205,0.190169 0.02756,-0.01103 0.06339,-0.03858 0.248047,-0.192926 0.391363,-0.264584 0.212217,-0.101974 0.460264,-0.101974 0.253559,0 0.451997,0.112999 0.223242,0.126779 0.289388,0.355534 0.146072,-0.198438 0.402387,-0.333486 0.256315,-0.135047 0.49885,-0.135047 0.363802,0 0.592556,0.16812 0.259071,0.190169 0.259071,0.542947 0,0.146072 -0.0083,0.440972 -0.0083,0.292145 -0.0083,0.438217 0,0.173632 0.0083,0.523654 0.0083,0.347266 0.0083,0.520899 z m 3.04822,-1.394575 q 0,0.278364 -0.179145,0.316949 -0.03032,0.0055 -0.570507,0.06063 -0.325217,0.03583 -0.970139,0.08544 0.03858,0.179145 0.234266,0.272851 0.159853,0.07717 0.363802,0.07717 0.245291,0 0.493338,-0.132291 0.104731,-0.06615 0.209462,-0.132292 0.05788,0.02756 0.192925,0.28112 0.137804,0.253559 0.137804,0.322461 0,0.01929 -0.04134,0.06339 -0.336241,0.361046 -1.044553,0.361046 -0.655946,0 -1.058333,-0.383095 -0.413412,-0.388607 -0.413412,-1.039041 0,-0.633897 0.369314,-1.039041 0.380339,-0.418923 1.008724,-0.418923 0.529167,0 0.898481,0.38585 0.369314,0.385851 0.369314,0.917774 z m -0.964626,-0.168121 q 0,-0.170876 -0.121268,-0.300412 -0.121267,-0.129536 -0.289388,-0.129536 -0.173633,0 -0.286632,0.146072 -0.104731,0.135048 -0.104731,0.316949 0,0.07441 0.07717,0.07441 0.203949,0 0.633897,-0.06339 0.09095,-0.01378 0.09095,-0.0441 z m 3.095073,-0.05237 q 0,0.107487 -0.118511,0.107487 -0.05237,0 -0.15434,-0.0055 -0.09922,-0.0083 -0.148829,-0.0083 -0.228754,0 -0.311436,0.07166 -0.08268,0.07166 -0.08268,0.289388 0,0.118512 0.0028,0.361046 0.0055,0.239779 0.0055,0.35829 0,0.07993 0.01102,0.239779 0.01102,0.157096 0.01102,0.234267 0,0.06615 -0.09095,0.07441 -0.132292,0.01102 -0.405143,0.01102 -0.261828,0 -0.418924,-0.01654 -0.09095,-0.01102 -0.09095,-0.09095 0,-0.220486 0.0028,-0.658702 0.0028,-0.440973 0.0028,-0.661459 0,-0.647678 -0.118512,-1.066601 -0.0055,-0.02481 -0.0055,-0.04134 0,-0.04134 0.04134,-0.05512 0.151584,-0.01654 0.443729,-0.06063 0.43546,-0.08544 0.44924,-0.08544 0.04961,0 0.06339,0.173633 0.01378,0.173633 0.04961,0.173633 -0.03859,0 0.225998,-0.143316 0.264584,-0.146072 0.509875,-0.146072 0.15434,0 0.15434,0.06614 0,0.07993 -0.01654,0.225999 -0.01654,0.157096 -0.01929,0.225998 0,0.07993 0.0028,0.212218 0.0055,0.162608 0.0055,0.214974 z m 2.146984,-0.09646 q -0.0028,0 -0.16812,-0.0441 -0.162609,-0.0441 -0.264584,-0.0441 -0.245291,0 -0.391363,0.148828 -0.146072,0.146072 -0.146072,0.391363 0,0.253559 0.159853,0.399631 0.159852,0.143316 0.416167,0.143316 0.121268,0 0.272852,-0.06063 0.151584,-0.06339 0.143316,-0.06339 0.04685,0 0.121267,0.350022 0.06339,0.319705 0.06339,0.424436 0,0.104731 -0.341754,0.179145 -0.264583,0.05788 -0.427191,0.05788 -0.606337,0 -1.000456,-0.407899 -0.394119,-0.407899 -0.394119,-1.016992 0,-0.603581 0.394119,-1.014236 0.396875,-0.413412 1.000456,-0.413412 0.410655,0 0.722092,0.176389 0.07166,0.03858 0.07166,0.07441 0,0.03583 -0.08268,0.325217 -0.07717,0.278364 -0.101974,0.336242 -0.02205,0.05788 -0.04685,0.05788 z m 3.048221,0.316949 q 0,0.278364 -0.179145,0.316949 -0.03032,0.0055 -0.570508,0.06063 -0.325217,0.03583 -0.970139,0.08544 0.03858,0.179145 0.234266,0.272851 0.159853,0.07717 0.363802,0.07717 0.245291,0 0.493338,-0.132291 0.104731,-0.06615 0.209462,-0.132292 0.05788,0.02756 0.192925,0.28112 0.137804,0.253559 0.137804,0.322461 0,0.01929 -0.04134,0.06339 -0.336241,0.361046 -1.044553,0.361046 -0.655946,0 -1.058333,-0.383095 -0.413412,-0.388607 -0.413412,-1.039041 0,-0.633897 0.369314,-1.039041 0.380339,-0.418923 1.008724,-0.418923 0.529167,0 0.898481,0.38585 0.369315,0.385851 0.369315,0.917774 z m -0.964627,-0.168121 q 0,-0.170876 -0.121268,-0.300412 -0.121267,-0.129536 -0.289388,-0.129536 -0.173632,0 -0.286631,0.146072 -0.104731,0.135048 -0.104731,0.316949 0,0.07441 0.07717,0.07441 0.203949,0 0.633897,-0.06339 0.09095,-0.01378 0.09095,-0.0441 z"
       id="text3"
       style="font-size:5.64444px;font-family:'Berlin Sans FB Demi';-inkscape-font-specification:'Berlin Sans FB Demi';fill:#ffffff;stroke-width:0.264583;fill-opacity:1"
       aria-label="E-Commerce" />
  </g>
</svg>
